<svg width="24" height="24" viewBox="0 0 24 24" fill="none" xmlns="http://www.w3.org/2000/svg">
<path d="M12 3.99998C12 4.55227 11.5523 4.99998 11 4.99998H5L5 19H11C11.5523 19 12 19.4477 12 20C12 20.5523 11.5523 21 11 21H5C3.89543 21 3 20.1046 3 19V4.99998C3 3.89541 3.89543 2.99998 5 2.99998H11C11.5523 2.99998 12 3.4477 12 3.99998Z" fill="black"/>
<path d="M15.0001 15.5858L17.5858 13.0001H9.00005C8.44776 13.0001 8.00005 12.5524 8.00005 12.0001C8.00005 11.4478 8.44777 11.0001 9.00005 11.0001L17.5858 11.0001L15 8.41426C14.6095 8.02374 14.6095 7.39058 15 7.00005C15.3905 6.60953 16.0237 6.60953 16.4142 7.00005L20.7072 11.293C20.8947 11.4805 21 11.7349 21 12.0001C21 12.2653 20.8947 12.5197 20.7072 12.7072L16.4143 17.0001C16.0238 17.3906 15.3906 17.3906 15.0001 17.0001C14.6096 16.6095 14.6096 15.9764 15.0001 15.5858Z" fill="black"/>
</svg>
